<svg width="60" height="60" viewBox="0 0 60 60" fill="none" xmlns="http://www.w3.org/2000/svg">
<g id="1">
<g id="Ellipse 9" filter="url(#filter0_d_322_1179)">
<circle cx="30.3095" cy="26.3095" r="26.3095" fill="#F2FFF5"/>
</g>
<path id="Vector" d="M50.1422 26.7649C50.1422 15.5655 41.0755 6.47607 29.9041 6.47607C18.7327 6.47607 9.66602 15.5655 9.66602 26.7649C9.66602 36.5847 16.6279 44.7611 25.8565 46.6479V32.8515H21.8089V26.7649H25.8565V21.6927C25.8565 17.7769 29.0339 14.5916 32.9398 14.5916H37.9993V20.6782H33.9517C32.8386 20.6782 31.9279 21.5912 31.9279 22.7071V26.7649H37.9993V32.8515H31.9279V46.9523C42.1482 45.9378 50.1422 37.2948 50.1422 26.7649Z" fill="#279EFF"/>
</g>
<defs>
<filter id="filter0_d_322_1179" x="0.761905" y="0" width="59.0953" height="59.0953" filterUnits="userSpaceOnUse" color-interpolation-filters="sRGB">
<feFlood flood-opacity="0" result="BackgroundImageFix"/>
<feColorMatrix in="SourceAlpha" type="matrix" values="0 0 0 0 0 0 0 0 0 0 0 0 0 0 0 0 0 0 127 0" result="hardAlpha"/>
<feOffset dy="3.2381"/>
<feGaussianBlur stdDeviation="1.61905"/>
<feComposite in2="hardAlpha" operator="out"/>
<feColorMatrix type="matrix" values="0 0 0 0 0 0 0 0 0 0 0 0 0 0 0 0 0 0 0.25 0"/>
<feBlend mode="normal" in2="BackgroundImageFix" result="effect1_dropShadow_322_1179"/>
<feBlend mode="normal" in="SourceGraphic" in2="effect1_dropShadow_322_1179" result="shape"/>
</filter>
</defs>
</svg>
