<svg width="60" height="60" viewBox="0 0 60 60" fill="none" xmlns="http://www.w3.org/2000/svg">
<g id="2">
<g id="Ellipse 9" filter="url(#filter0_d_322_1182)">
<circle cx="30.4052" cy="26.3095" r="26.3095" fill="#F2FFF5"/>
</g>
<path id="Vector" d="M22.3105 8.09521C16.7227 8.09521 12.1914 12.6265 12.1914 18.2143V34.4047C12.1914 39.9925 16.7227 44.5238 22.3105 44.5238H38.5009C44.0887 44.5238 48.62 39.9925 48.62 34.4047V18.2143C48.62 12.6265 44.0887 8.09521 38.5009 8.09521H22.3105ZM42.5486 12.1428C43.6657 12.1428 44.5724 13.0495 44.5724 14.1666C44.5724 15.2838 43.6657 16.1905 42.5486 16.1905C41.4314 16.1905 40.5247 15.2838 40.5247 14.1666C40.5247 13.0495 41.4314 12.1428 42.5486 12.1428ZM30.4057 16.1905C35.9934 16.1905 40.5247 20.7218 40.5247 26.3095C40.5247 31.8972 35.9934 36.4285 30.4057 36.4285C24.818 36.4285 20.2866 31.8972 20.2866 26.3095C20.2866 20.7218 24.818 16.1905 30.4057 16.1905ZM30.4057 20.2381C28.7954 20.2381 27.2512 20.8777 26.1125 22.0164C24.9739 23.155 24.3343 24.6993 24.3343 26.3095C24.3343 27.9197 24.9739 29.464 26.1125 30.6026C27.2512 31.7413 28.7954 32.3809 30.4057 32.3809C32.0159 32.3809 33.5602 31.7413 34.6988 30.6026C35.8375 29.464 36.4771 27.9197 36.4771 26.3095C36.4771 24.6993 35.8375 23.155 34.6988 22.0164C33.5602 20.8777 32.0159 20.2381 30.4057 20.2381Z" fill="#279EFF"/>
</g>
<defs>
<filter id="filter0_d_322_1182" x="0.857608" y="0" width="59.0953" height="59.0953" filterUnits="userSpaceOnUse" color-interpolation-filters="sRGB">
<feFlood flood-opacity="0" result="BackgroundImageFix"/>
<feColorMatrix in="SourceAlpha" type="matrix" values="0 0 0 0 0 0 0 0 0 0 0 0 0 0 0 0 0 0 127 0" result="hardAlpha"/>
<feOffset dy="3.2381"/>
<feGaussianBlur stdDeviation="1.61905"/>
<feComposite in2="hardAlpha" operator="out"/>
<feColorMatrix type="matrix" values="0 0 0 0 0 0 0 0 0 0 0 0 0 0 0 0 0 0 0.25 0"/>
<feBlend mode="normal" in2="BackgroundImageFix" result="effect1_dropShadow_322_1182"/>
<feBlend mode="normal" in="SourceGraphic" in2="effect1_dropShadow_322_1182" result="shape"/>
</filter>
</defs>
</svg>
