<svg width="61" height="60" viewBox="0 0 61 60" fill="none" xmlns="http://www.w3.org/2000/svg">
<g id="3">
<g id="Ellipse 9" filter="url(#filter0_d_322_1185)">
<circle cx="30.5009" cy="26.3095" r="26.3095" fill="#F2FFF5"/>
</g>
<path id="Vector" d="M49.5251 12.1428C48.0097 12.9627 44.9691 14.08 43.1817 14.4023C43.1292 14.4147 43.0865 14.4306 43.036 14.443C41.4564 13.0229 39.2921 12.1428 36.8965 12.1428C32.0685 12.1428 28.1537 15.7108 28.1537 20.1111C28.1537 20.343 28.1323 20.7698 28.1537 20.9964C21.6393 20.9964 16.6811 17.887 13.1257 13.9135C12.7391 14.7989 12.57 16.1978 12.57 17.5117C12.57 19.9924 14.6975 22.429 18.01 23.9394C17.4 24.0828 16.7277 24.1855 16.0283 24.1855C14.8995 24.1855 13.7047 23.9146 12.6108 23.093C12.6108 23.1231 12.6108 23.1514 12.6108 23.1833C12.6108 26.6504 16.6481 29.0107 20.2385 29.6677C19.5099 30.059 18.0411 30.0979 17.3242 30.0979C16.8191 30.0979 15.0316 29.8872 14.5537 29.8058C15.5523 32.6478 19.1544 34.245 22.5874 34.3016C19.9024 36.2211 18.0392 36.9329 12.5409 36.9329H10.668C14.1418 38.9622 18.5657 40.4762 22.9993 40.4762C37.4347 40.4762 45.6394 30.4486 45.6394 20.9964C45.6394 20.8442 45.6355 20.5254 45.6297 20.2049C45.6297 20.173 45.6394 20.1429 45.6394 20.1111C45.6394 20.0633 45.6239 20.0172 45.6239 19.9694C45.618 19.7286 45.6122 19.5037 45.6064 19.3868C47.1412 18.3775 48.4721 17.1186 49.5251 15.6843C48.1165 16.2544 46.605 16.6369 45.0177 16.8104C46.638 15.9251 48.9403 13.8144 49.5251 12.1428Z" fill="#279EFF"/>
</g>
<defs>
<filter id="filter0_d_322_1185" x="0.953311" y="0" width="59.0953" height="59.0953" filterUnits="userSpaceOnUse" color-interpolation-filters="sRGB">
<feFlood flood-opacity="0" result="BackgroundImageFix"/>
<feColorMatrix in="SourceAlpha" type="matrix" values="0 0 0 0 0 0 0 0 0 0 0 0 0 0 0 0 0 0 127 0" result="hardAlpha"/>
<feOffset dy="3.2381"/>
<feGaussianBlur stdDeviation="1.61905"/>
<feComposite in2="hardAlpha" operator="out"/>
<feColorMatrix type="matrix" values="0 0 0 0 0 0 0 0 0 0 0 0 0 0 0 0 0 0 0.25 0"/>
<feBlend mode="normal" in2="BackgroundImageFix" result="effect1_dropShadow_322_1185"/>
<feBlend mode="normal" in="SourceGraphic" in2="effect1_dropShadow_322_1185" result="shape"/>
</filter>
</defs>
</svg>
