<svg width="60" height="60" viewBox="0 0 60 60" fill="none" xmlns="http://www.w3.org/2000/svg">
<g id="5">
<g id="Ellipse 9" filter="url(#filter0_d_322_1193)">
<circle cx="29.6904" cy="26.3095" r="26.3095" fill="#F2FFF5"/>
</g>
<path id="Vector" d="M47.1438 17.8896C46.7248 16.5842 45.4899 15.5551 43.9235 15.206C41.0821 14.5715 29.6908 14.5715 29.6908 14.5715C29.6908 14.5715 18.2996 14.5715 15.4582 15.206C13.8918 15.5551 12.6568 16.5842 12.2379 17.8896C11.4766 20.2574 11.4766 26.7144 11.4766 26.7144C11.4766 26.7144 11.4766 33.1714 12.2379 35.5392C12.6568 36.8446 13.8918 37.8737 15.4582 38.2228C18.2996 38.8573 29.6908 38.8572 29.6908 38.8572C29.6908 38.8572 41.0821 38.8573 43.9235 38.2228C45.4917 37.8737 46.7248 36.8446 47.1438 35.5392C47.9051 33.1714 47.9051 26.7144 47.9051 26.7144C47.9051 26.7144 47.9051 20.2574 47.1438 17.8896ZM26.048 31.9722V21.4565L36.9766 26.7144L26.048 31.9722Z" fill="#DC2F39"/>
</g>
<defs>
<filter id="filter0_d_322_1193" x="0.142764" y="0" width="59.0953" height="59.0953" filterUnits="userSpaceOnUse" color-interpolation-filters="sRGB">
<feFlood flood-opacity="0" result="BackgroundImageFix"/>
<feColorMatrix in="SourceAlpha" type="matrix" values="0 0 0 0 0 0 0 0 0 0 0 0 0 0 0 0 0 0 127 0" result="hardAlpha"/>
<feOffset dy="3.2381"/>
<feGaussianBlur stdDeviation="1.61905"/>
<feComposite in2="hardAlpha" operator="out"/>
<feColorMatrix type="matrix" values="0 0 0 0 0 0 0 0 0 0 0 0 0 0 0 0 0 0 0.25 0"/>
<feBlend mode="normal" in2="BackgroundImageFix" result="effect1_dropShadow_322_1193"/>
<feBlend mode="normal" in="SourceGraphic" in2="effect1_dropShadow_322_1193" result="shape"/>
</filter>
</defs>
</svg>
