<svg width="60" height="60" viewBox="0 0 60 60" fill="none" xmlns="http://www.w3.org/2000/svg">
<g id="6">
<g id="Ellipse 9" filter="url(#filter0_d_322_1196)">
<circle cx="29.7861" cy="26.3095" r="26.3095" fill="#F2FFF5"/>
</g>
<g id="Group">
<path id="Vector" fill-rule="evenodd" clip-rule="evenodd" d="M35.7118 26.0002L47.476 16.3689C47.5246 16.5254 47.5491 16.6871 47.5488 16.8495V35.1512C47.5491 35.3136 47.5245 35.4753 47.476 35.6318L35.7118 26.0002ZM12.7525 36.8206C13.0329 36.9389 13.3401 37.0002 13.6512 37H45.4462C45.81 37 46.1674 36.9163 46.483 36.7568L34.5288 26.9691L32.36 28.7441C31.6161 29.3396 30.6413 29.6618 29.6356 29.6446C28.6251 29.6419 27.6516 29.3082 26.9051 28.709L24.7824 26.9705L12.7525 36.8206ZM11.6688 16.2319C11.5887 16.4302 11.548 16.639 11.5488 16.8493V35.1509C11.548 35.3612 11.5887 35.57 11.6688 35.7682L23.5995 26L11.6688 16.2319ZM45.4444 15.0006L13.651 15.0009C13.3399 15.0006 13.0327 15.062 12.7522 15.1803L25.3265 25.4768L25.3318 25.481L28.0036 27.6689C28.4537 28.0289 29.0396 28.2284 29.6479 28.2291C30.242 28.2421 30.8192 28.0551 31.2615 27.706L33.9813 25.4807L33.9852 25.4773L46.4831 15.2429C46.1675 15.0837 45.8101 15 45.4462 15L45.4444 15.0006Z" fill="#DC2F39"/>
</g>
</g>
<defs>
<filter id="filter0_d_322_1196" x="0.238467" y="0" width="59.0953" height="59.0953" filterUnits="userSpaceOnUse" color-interpolation-filters="sRGB">
<feFlood flood-opacity="0" result="BackgroundImageFix"/>
<feColorMatrix in="SourceAlpha" type="matrix" values="0 0 0 0 0 0 0 0 0 0 0 0 0 0 0 0 0 0 127 0" result="hardAlpha"/>
<feOffset dy="3.2381"/>
<feGaussianBlur stdDeviation="1.61905"/>
<feComposite in2="hardAlpha" operator="out"/>
<feColorMatrix type="matrix" values="0 0 0 0 0 0 0 0 0 0 0 0 0 0 0 0 0 0 0.25 0"/>
<feBlend mode="normal" in2="BackgroundImageFix" result="effect1_dropShadow_322_1196"/>
<feBlend mode="normal" in="SourceGraphic" in2="effect1_dropShadow_322_1196" result="shape"/>
</filter>
</defs>
</svg>
