<svg width="51" height="40" viewBox="0 0 51 40" fill="none" xmlns="http://www.w3.org/2000/svg">
<g id="Frame">
<path id="Vector" d="M11.1562 18.5189H43.0312C43.4539 18.5189 43.8593 18.649 44.1582 18.8805C44.4571 19.1121 44.625 19.4261 44.625 19.7535C44.625 20.081 44.4571 20.395 44.1582 20.6265C43.8593 20.858 43.4539 20.9881 43.0312 20.9881H11.1562C10.7336 20.9881 10.3282 20.858 10.0293 20.6265C9.73041 20.395 9.5625 20.081 9.5625 19.7535C9.5625 19.4261 9.73041 19.1121 10.0293 18.8805C10.3282 18.649 10.7336 18.5189 11.1562 18.5189Z" fill="black"/>
<path id="Vector_2" d="M11.816 19.7535L25.0345 29.9908C25.3338 30.2226 25.5019 30.537 25.5019 30.8649C25.5019 31.1927 25.3338 31.5072 25.0345 31.739C24.7353 31.9708 24.3294 32.101 23.9062 32.101C23.4829 32.101 23.077 31.9708 22.7778 31.739L8.43404 20.6276C8.28562 20.5129 8.16787 20.3767 8.08752 20.2267C8.00718 20.0767 7.96582 19.9159 7.96582 19.7535C7.96582 19.5911 8.00718 19.4303 8.08752 19.2803C8.16787 19.1304 8.28562 18.9941 8.43404 18.8794L22.7778 7.76807C23.077 7.53624 23.4829 7.40601 23.9062 7.40601C24.3294 7.40601 24.7353 7.53624 25.0345 7.76807C25.3338 7.99989 25.5019 8.31431 25.5019 8.64216C25.5019 8.97001 25.3338 9.28443 25.0345 9.51626L11.816 19.7535Z" fill="black"/>
</g>
</svg>
