<svg width="30" height="30" viewBox="0 0 30 30" fill="none" xmlns="http://www.w3.org/2000/svg">
<g id="Frame">
<path id="Vector" d="M27.0234 7.5H4.6875C4.16953 7.5 3.75 7.08047 3.75 6.5625C3.75 6.04453 4.16953 5.625 4.6875 5.625H27.1875C27.7055 5.625 28.125 5.20547 28.125 4.6875C28.125 3.13418 26.8658 1.875 25.3125 1.875H3.75C1.67871 1.875 0 3.55371 0 5.625V24.375C0 26.4463 1.67871 28.125 3.75 28.125H27.0234C28.6652 28.125 30 26.8635 30 25.3125V10.3125C30 8.76152 28.6652 7.5 27.0234 7.5ZM24.375 19.6875C23.3396 19.6875 22.5 18.8479 22.5 17.8125C22.5 16.7771 23.3396 15.9375 24.375 15.9375C25.4104 15.9375 26.25 16.7771 26.25 17.8125C26.25 18.8479 25.4104 19.6875 24.375 19.6875Z" fill="white"/>
</g>
</svg>
