<svg width="27" height="27" viewBox="0 0 27 27" fill="none" xmlns="http://www.w3.org/2000/svg">
<g id="icon briefcase">
<path id="Vector" d="M10.1461 0C8.29213 0 6.77528 1.51685 6.77528 3.37079V6.74157H0.337079C0.134831 6.74157 0.0337079 6.87641 0.0337079 7.04494V15.1685C0.0337079 16.1124 0.775281 16.8539 1.7191 16.8539H25.3146C26.2584 16.8539 27 16.1124 27 15.1685V7.04494C27 6.8427 26.8652 6.74157 26.6966 6.74157H20.2584V3.37079C20.2584 1.51685 18.7416 0 16.8876 0L10.1461 0ZM10.1461 3.37079H16.8876V6.74157H10.1461V3.37079ZM0.0337079 19.9214V26.6629C0.0337079 26.8315 0.168539 26.9663 0.337079 26.9663H26.6629C26.8315 26.9663 26.9663 26.8315 26.9663 26.6629V19.9214C26.427 20.1236 25.8876 20.2247 25.2809 20.2247H1.68539C1.07865 20.2247 0.539326 20.0899 0 19.9214H0.0337079Z" fill="black"/>
</g>
</svg>
