<svg width="29" height="30" viewBox="0 0 29 30" fill="none" xmlns="http://www.w3.org/2000/svg">
<g id="Frame">
<path id="Vector" d="M4.6875 26.25H5.85937V10H4.6875C4.0659 10 3.46976 10.2634 3.03022 10.7322C2.59068 11.2011 2.34375 11.837 2.34375 12.5V23.75C2.34375 24.413 2.59068 25.0489 3.03022 25.5178C3.46976 25.9866 4.0659 26.25 4.6875 26.25ZM23.4375 10H15.2344L16.5492 5.79C16.6665 5.41427 16.6985 5.01418 16.6425 4.62269C16.5864 4.23121 16.444 3.85952 16.2269 3.53824C16.0098 3.21697 15.7243 2.9553 15.3938 2.77479C15.0634 2.59429 14.6974 2.5001 14.3262 2.5H14.0625L8.20312 9.2975V26.25H21.0937L25.6781 15.505L25.7812 15V12.5C25.7812 11.837 25.5343 11.2011 25.0948 10.7322C24.6552 10.2634 24.0591 10 23.4375 10Z" fill="black" fill-opacity="0.8"/>
</g>
</svg>
