<svg width="15" height="15" viewBox="0 0 15 15" fill="none" xmlns="http://www.w3.org/2000/svg">
<g id="next 1">
<g id="Group">
<g id="Group_2">
<path id="Vector" d="M11.4543 6.9147L5.23127 0.239632C5.08734 0.0851213 4.8952 0 4.69033 0C4.48546 0 4.29333 0.0851213 4.1494 0.239632L3.69111 0.731092C3.3929 1.05133 3.3929 1.57182 3.69111 1.89157L8.91676 7.49689L3.68531 13.1084C3.54138 13.2629 3.46191 13.4689 3.46191 13.6885C3.46191 13.9084 3.54138 14.1144 3.68531 14.269L4.1436 14.7604C4.28764 14.9149 4.47967 15 4.68454 15C4.88941 15 5.08154 14.9149 5.22547 14.7604L11.4543 8.0792C11.5986 7.9242 11.6778 7.71725 11.6774 7.49726C11.6778 7.2764 11.5986 7.06958 11.4543 6.9147Z" fill="white"/>
</g>
</g>
</g>
</svg>
