<svg width="15" height="15" viewBox="0 0 15 15" fill="none" xmlns="http://www.w3.org/2000/svg">
<g id="next 2" clip-path="url(#clip0_176_2861)">
<g id="Group">
<g id="Group_2">
<path id="Vector" d="M3.68472 8.0853L9.90777 14.7604C10.0517 14.9149 10.2438 15 10.4487 15C10.6536 15 10.8457 14.9149 10.9896 14.7604L11.4479 14.2689C11.7461 13.9487 11.7461 13.4282 11.4479 13.1084L6.22228 7.50311L11.4537 1.89157C11.5977 1.73706 11.6771 1.53108 11.6771 1.31145C11.6771 1.09158 11.5977 0.885602 11.4537 0.730968L10.9954 0.239632C10.8514 0.0851202 10.6594 0 10.4545 0C10.2496 0 10.0575 0.0851202 9.91357 0.239632L3.68472 6.9208C3.54045 7.0758 3.46121 7.28275 3.46166 7.50274C3.46121 7.7236 3.54045 7.93042 3.68472 8.0853Z" fill="white"/>
</g>
</g>
</g>
<defs>
<clipPath id="clip0_176_2861">
<rect width="13.984" height="15" fill="white" transform="translate(0.577515)"/>
</clipPath>
</defs>
</svg>
