<svg width="46" height="46" viewBox="0 0 46 46" fill="none" xmlns="http://www.w3.org/2000/svg">
<g id="&#240;&#159;&#166;&#134; icon &#34;magnifying glass&#34;">
<path id="Vector" d="M19.9444 0.0569841C8.94651 0.0569841 0 9.00349 0 20.0014C0 30.9994 8.94651 39.9459 19.9444 39.9459C23.3065 39.9459 26.6116 39.1481 29.4038 37.6095C29.6275 37.8787 29.8754 38.1266 30.1446 38.3503L35.843 44.0487C36.3692 44.6408 37.0108 45.1191 37.7285 45.4542C38.4462 45.7893 39.2249 45.9742 40.0166 45.9975C40.8083 46.0208 41.5965 45.882 42.3327 45.5897C43.0688 45.2974 43.7375 44.8577 44.2976 44.2976C44.8577 43.7375 45.2974 43.0689 45.5897 42.3327C45.882 41.5965 46.0208 40.8083 45.9975 40.0166C45.9742 39.2249 45.7893 38.4462 45.4542 37.7285C45.1191 37.0108 44.6408 36.3692 44.0487 35.843L38.3503 30.1446C38.0727 29.8669 37.7672 29.6187 37.4386 29.4038C38.9771 26.6116 39.9459 23.3635 39.9459 19.9444C39.9459 8.94651 30.9994 0 20.0014 0L19.9444 0.0569841ZM19.9444 5.7554C27.8652 5.7554 34.1905 12.0806 34.1905 20.0014C34.1905 23.7624 32.8228 27.2384 30.4295 29.8027C30.3725 29.8597 30.3155 29.9167 30.2586 29.9736C29.9894 30.1973 29.7414 30.4453 29.5178 30.7144C27.0105 32.9938 23.5914 34.3044 19.8875 34.3044C11.9667 34.3044 5.64143 27.9792 5.64143 20.0584C5.64143 12.1376 11.9667 5.81238 19.8875 5.81238L19.9444 5.7554Z" fill="black" fill-opacity="0.22"/>
</g>
</svg>
