<svg width="30" height="30" viewBox="0 0 30 30" fill="none" xmlns="http://www.w3.org/2000/svg">
<g id="Frame">
<path id="Vector" d="M0 7.5C0 6.50544 0.395088 5.55161 1.09835 4.84835C1.80161 4.14509 2.75544 3.75 3.75 3.75H26.25C27.2446 3.75 28.1984 4.14509 28.9016 4.84835C29.6049 5.55161 30 6.50544 30 7.5V9.375H0V7.5ZM0 13.125V22.5C0 23.4946 0.395088 24.4484 1.09835 25.1516C1.80161 25.8549 2.75544 26.25 3.75 26.25H26.25C27.2446 26.25 28.1984 25.8549 28.9016 25.1516C29.6049 24.4484 30 23.4946 30 22.5V13.125H0ZM5.625 16.875H7.5C7.99728 16.875 8.47419 17.0725 8.82582 17.4242C9.17746 17.7758 9.375 18.2527 9.375 18.75V20.625C9.375 21.1223 9.17746 21.5992 8.82582 21.9508C8.47419 22.3025 7.99728 22.5 7.5 22.5H5.625C5.12772 22.5 4.65081 22.3025 4.29917 21.9508C3.94754 21.5992 3.75 21.1223 3.75 20.625V18.75C3.75 18.2527 3.94754 17.7758 4.29917 17.4242C4.65081 17.0725 5.12772 16.875 5.625 16.875Z" fill="white"/>
</g>
</svg>
