<svg width="38" height="38" viewBox="0 0 38 38" fill="none" xmlns="http://www.w3.org/2000/svg">
<path id="Vector" d="M18.5946 0.757812C8.34852 0.757812 0.0429688 9.06336 0.0429688 19.3094C0.0429688 27.1697 4.93317 33.8817 11.8344 36.5846C11.673 35.1172 11.5245 32.865 11.8993 31.264C12.2369 29.817 14.0735 22.042 14.0735 22.042C14.0735 22.042 13.5188 20.9308 13.5188 19.289C13.5188 16.7085 15.0141 14.7847 16.8748 14.7847C18.4573 14.7847 19.2216 15.9738 19.2216 17.3967C19.2216 18.9885 18.2087 21.3686 17.6855 23.5726C17.2477 25.4203 18.6113 26.9248 20.433 26.9248C23.7296 26.9248 26.2638 23.4483 26.2638 18.4301C26.2638 13.9888 23.0729 10.8833 18.5148 10.8833C13.2369 10.8833 10.1387 14.8422 10.1387 18.9347C10.1387 20.5282 10.7528 22.2387 11.519 23.1681C11.6711 23.3518 11.6915 23.5132 11.647 23.7006C11.506 24.2868 11.1943 25.5464 11.1331 25.8043C11.0533 26.1438 10.8641 26.2162 10.5135 26.051C8.19639 24.9713 6.74751 21.5838 6.74751 18.8642C6.74751 13.013 10.9995 7.63674 19.0064 7.63674C25.4419 7.63674 30.4435 12.2227 30.4435 18.3521C30.4435 24.7469 26.4122 29.8912 20.817 29.8912C18.9378 29.8912 17.1698 28.9136 16.565 27.7615C16.565 27.7615 15.6337 31.303 15.4092 32.1731C14.99 33.7833 13.8602 35.8055 13.1033 37.0373C14.8379 37.5697 16.6819 37.861 18.5946 37.861C28.8387 37.861 37.1461 29.5536 37.1461 19.3094C37.1461 9.06521 28.8406 0.757812 18.5946 0.757812Z" fill="#DC2F39"/>
</svg>
